<svg width="27" height="24" viewBox="0 0 27 24" fill="none" xmlns="http://www.w3.org/2000/svg">
<path fill-rule="evenodd" clip-rule="evenodd" d="M22.1305 3H4.73916C3.54351 3 2.56525 3.9 2.56525 5V19C2.56525 20.1 3.54351 21 4.73916 21H22.1305C23.3261 21 24.3044 20.1 24.3044 19V5C24.3044 3.9 23.3261 3 22.1305 3ZM10.1739 17H6.91307C6.31525 17 5.82612 16.55 5.82612 16C5.82612 15.45 6.31525 15 6.91307 15H10.1739C10.7718 15 11.2609 15.45 11.2609 16C11.2609 16.55 10.7718 17 10.1739 17ZM10.1739 13H6.91307C6.31525 13 5.82612 12.55 5.82612 12C5.82612 11.45 6.31525 11 6.91307 11H10.1739C10.7718 11 11.2609 11.45 11.2609 12C11.2609 12.55 10.7718 13 10.1739 13ZM10.1739 9H6.91307C6.31525 9 5.82612 8.55 5.82612 8C5.82612 7.45 6.31525 7 6.91307 7H10.1739C10.7718 7 11.2609 7.45 11.2609 8C11.2609 8.55 10.7718 9 10.1739 9ZM20.7174 11.12L17.2718 14.29C16.8479 14.68 16.1522 14.68 15.7283 14.29L14.1957 12.87C13.7718 12.48 13.7718 11.85 14.1957 11.46C14.6196 11.07 15.3044 11.07 15.7283 11.46L16.5 12.17L19.1848 9.7C19.6087 9.31 20.2935 9.31 20.7174 9.7L20.7283 9.71C21.1413 10.1 21.1413 10.74 20.7174 11.12Z" fill="#1B59F8" fill-opacity="0.7"/>
</svg>
