<svg width="15" height="15" viewBox="0 0 15 15" fill="none" xmlns="http://www.w3.org/2000/svg">
<path d="M7.50012 1.40605C4.14006 1.40605 1.40637 4.13974 1.40637 7.4998C1.40637 10.8599 4.14006 13.5935 7.50012 13.5935C10.8602 13.5935 13.5939 10.8599 13.5939 7.4998C13.5939 4.13974 10.8602 1.40605 7.50012 1.40605ZM10.6715 5.45752L6.73401 10.145C6.69082 10.1965 6.63707 10.238 6.57642 10.2669C6.51576 10.2957 6.44961 10.3112 6.38245 10.3123H6.37454C6.30883 10.3123 6.24387 10.2984 6.18386 10.2717C6.12385 10.2449 6.07013 10.2059 6.0262 10.157L4.3387 8.28203C4.29584 8.23657 4.2625 8.18301 4.24064 8.12449C4.21878 8.06596 4.20884 8.00366 4.2114 7.94124C4.21396 7.87882 4.22898 7.81754 4.25556 7.76101C4.28214 7.70447 4.31976 7.65382 4.3662 7.61203C4.41263 7.57024 4.46696 7.53816 4.52597 7.51766C4.58499 7.49716 4.6475 7.48867 4.70985 7.49268C4.77219 7.49669 4.8331 7.51312 4.88901 7.54101C4.94491 7.5689 4.99467 7.60768 5.03538 7.65507L6.36223 9.12929L9.95373 4.85459C10.0343 4.76145 10.1483 4.70375 10.271 4.69397C10.3938 4.68418 10.5155 4.7231 10.6098 4.80231C10.7041 4.88152 10.7634 4.99465 10.7749 5.11726C10.7865 5.23986 10.7493 5.36209 10.6715 5.45752Z" fill="#68D391"/>
</svg>
