<svg width="21" height="21" viewBox="0 0 21 21" fill="none" xmlns="http://www.w3.org/2000/svg">
<g clip-path="url(#clip0_1_1465)">
<path d="M10.5 7.16668C11.4167 7.16668 12.1667 6.41668 12.1667 5.50001C12.1667 4.58334 11.4167 3.83334 10.5 3.83334C9.58337 3.83334 8.83337 4.58334 8.83337 5.50001C8.83337 6.41668 9.58337 7.16668 10.5 7.16668ZM10.5 8.83334C9.58337 8.83334 8.83337 9.58334 8.83337 10.5C8.83337 11.4167 9.58337 12.1667 10.5 12.1667C11.4167 12.1667 12.1667 11.4167 12.1667 10.5C12.1667 9.58334 11.4167 8.83334 10.5 8.83334ZM10.5 13.8333C9.58337 13.8333 8.83337 14.5833 8.83337 15.5C8.83337 16.4167 9.58337 17.1667 10.5 17.1667C11.4167 17.1667 12.1667 16.4167 12.1667 15.5C12.1667 14.5833 11.4167 13.8333 10.5 13.8333Z" fill="#A0AEC0"/>
</g>
<defs>
<clipPath id="clip0_1_1465">
<rect width="20" height="20" fill="white" transform="translate(0.5 0.5)"/>
</clipPath>
</defs>
</svg>
