<svg width="27" height="24" viewBox="0 0 27 24" fill="none" xmlns="http://www.w3.org/2000/svg">
<path fill-rule="evenodd" clip-rule="evenodd" d="M12.337 8C12.337 9.66 10.8914 11 9.08703 11C7.28268 11 5.82616 9.66 5.82616 8C5.82616 6.34 7.28268 5 9.08703 5C10.8914 5 12.337 6.34 12.337 8ZM21.0327 8C21.0327 9.66 19.587 11 17.7827 11C15.9783 11 14.5218 9.66 14.5218 8C14.5218 6.34 15.9783 5 17.7827 5C19.587 5 21.0327 6.34 21.0327 8ZM9.08703 13C6.55442 13 1.47833 14.17 1.47833 16.5V18C1.47833 18.55 1.96746 19 2.56529 19H15.6088C16.2066 19 16.6957 18.55 16.6957 18V16.5C16.6957 14.17 11.6196 13 9.08703 13ZM16.7283 13.05C17.1088 13.02 17.4675 13 17.7827 13C20.3153 13 25.3914 14.17 25.3914 16.5V18C25.3914 18.55 24.9022 19 24.3044 19H18.674C18.7936 18.69 18.8696 18.35 18.8696 18V16.5C18.8696 15.03 18.0109 13.92 16.7718 13.09C16.7685 13.087 16.7652 13.083 16.7616 13.0787C16.7534 13.0688 16.7435 13.057 16.7283 13.05Z" fill="#1B59F8"/>
</svg>
