<svg width="24" height="24" viewBox="0 0 22 12" fill="none" xmlns="http://www.w3.org/2000/svg">
<path d="M15.6656 0.85L17.2058 2.29L11.9863 7.17L8.46745 3.88C8.05032 3.49 7.37649 3.49 6.95936 3.88L0.541974 9.89C0.124843 10.28 0.124843 10.91 0.541974 11.3C0.959104 11.69 1.63293 11.69 2.05006 11.3L7.70806 6L11.2269 9.29C11.6441 9.68 12.3179 9.68 12.735 9.29L18.7139 3.71L20.2541 5.15C20.5856 5.46 21.1632 5.24 21.1632 4.8V0.5C21.1739 0.22 20.9386 0 20.6391 0H16.0507C15.5694 0 15.3341 0.54 15.6656 0.85Z" fill="#1B59F8"/>
</svg>
